<svg width="106" height="19" viewBox="0 0 106 19" fill="none" xmlns="http://www.w3.org/2000/svg">
<path d="M2.888 13.176C3.4 14.152 4.048 14.904 4.832 15.432C5.616 15.96 6.424 16.224 7.256 16.224C8.376 16.224 9.272 15.968 9.944 15.456C10.632 14.928 10.976 14.24 10.976 13.392C10.976 12.816 10.8 12.344 10.448 11.976C10.112 11.592 9.68 11.28 9.152 11.04C8.64 10.8 7.928 10.52 7.016 10.2C5.864 9.8 4.928 9.416 4.208 9.048C3.488 8.68 2.872 8.16 2.36 7.488C1.848 6.816 1.592 5.952 1.592 4.896C1.592 3.968 1.848 3.16 2.36 2.472C2.872 1.768 3.568 1.232 4.448 0.863999C5.344 0.495999 6.336 0.311999 7.424 0.311999C8.672 0.311999 9.824 0.655999 10.88 1.344C11.936 2.032 12.696 3.024 13.16 4.32L10.952 5.136C10.664 4.272 10.184 3.616 9.512 3.168C8.856 2.704 8.16 2.472 7.424 2.472C6.464 2.472 5.664 2.696 5.024 3.144C4.4 3.592 4.088 4.184 4.088 4.92C4.088 5.48 4.264 5.952 4.616 6.336C4.968 6.72 5.4 7.04 5.912 7.296C6.424 7.536 7.144 7.824 8.072 8.16C9.224 8.576 10.16 8.968 10.88 9.336C11.6 9.704 12.208 10.224 12.704 10.896C13.216 11.552 13.472 12.392 13.472 13.416C13.472 14.392 13.208 15.256 12.68 16.008C12.152 16.76 11.416 17.344 10.472 17.76C9.528 18.176 8.448 18.384 7.232 18.384C5.92 18.384 4.704 18.032 3.584 17.328C2.48 16.608 1.552 15.608 0.8 14.328L2.888 13.176ZM21.6363 18.24C20.5483 18.24 19.6523 17.88 18.9483 17.16C18.2443 16.44 17.8843 15.512 17.8683 14.376V7.896H15.7083V5.712H17.8683V2.28H20.3643V5.712H23.0523V7.896H20.3643V14.256C20.3643 14.688 20.4843 15.064 20.7243 15.384C20.9643 15.704 21.2683 15.872 21.6363 15.888C21.9083 15.888 22.1643 15.864 22.4043 15.816C22.6603 15.752 22.8283 15.712 22.9083 15.696L23.4363 18.024C22.6523 18.168 22.0523 18.24 21.6363 18.24ZM34.8753 10.968C34.7633 10.04 34.4353 9.264 33.8913 8.64C33.3473 8 32.5633 7.68 31.5393 7.68C30.6113 7.68 29.8033 8 29.1153 8.64C28.4433 9.264 28.0353 10.048 27.8913 10.992L34.8753 10.968ZM25.4913 11.928C25.4913 10.696 25.7473 9.6 26.2593 8.64C26.7713 7.68 27.4753 6.936 28.3713 6.408C29.2833 5.864 30.3233 5.592 31.4913 5.592C33.1393 5.592 34.3473 5.992 35.1153 6.792C35.8993 7.592 36.4273 8.328 36.6993 9C37.0673 9.896 37.2513 10.888 37.2513 11.976C37.2513 12.2 37.2433 12.4 37.2273 12.576C37.2113 12.736 37.2033 12.84 37.2033 12.888H27.8913C28.0353 13.848 28.4513 14.632 29.1393 15.24C29.8273 15.848 30.6193 16.152 31.5153 16.152C32.2353 16.152 32.8273 16.04 33.2913 15.816C33.7713 15.592 34.0993 15.384 34.2753 15.192C34.4513 15 34.6193 14.784 34.7793 14.544L36.7953 15.456C36.4113 16.24 35.7713 16.904 34.8753 17.448C33.9793 17.976 32.8513 18.24 31.4913 18.24C30.3233 18.24 29.2833 17.976 28.3713 17.448C27.4753 16.904 26.7713 16.152 26.2593 15.192C25.7473 14.232 25.4913 13.144 25.4913 11.928ZM42.2201 0.503999V18.168H39.7241V0.503999H42.2201ZM47.8451 0.503999V18.168H45.3491V0.503999H47.8451ZM56.3613 16.224C57.0173 16.224 57.6333 16.04 58.2093 15.672C58.7853 15.288 59.2413 14.776 59.5773 14.136C59.9293 13.48 60.1053 12.76 60.1053 11.976C60.1053 11.192 59.9293 10.48 59.5773 9.84C59.2413 9.184 58.7853 8.672 58.2093 8.304C57.6333 7.92 57.0173 7.728 56.3613 7.728C55.2893 7.728 54.4173 8.12 53.7453 8.904C53.0733 9.688 52.7373 10.712 52.7373 11.976C52.7373 13.24 53.0733 14.264 53.7453 15.048C54.4173 15.832 55.2893 16.224 56.3613 16.224ZM50.2413 11.976C50.2413 10.76 50.4893 9.672 50.9853 8.712C51.4973 7.752 52.2013 7.008 53.0973 6.48C54.0093 5.936 55.0413 5.664 56.1933 5.664C56.9293 5.664 57.6333 5.848 58.3053 6.216C58.9933 6.568 59.5853 7.104 60.0813 7.824V5.616H62.5773V18.168L60.0813 18.192V16.104C59.5693 16.84 58.9773 17.392 58.3053 17.76C57.6333 18.112 56.9293 18.288 56.1933 18.288C55.0413 18.288 54.0093 18.024 53.0973 17.496C52.2013 16.952 51.4973 16.2 50.9853 15.24C50.4893 14.28 50.2413 13.192 50.2413 11.976ZM68.7358 16.008H77.4958V18.168H66.2398V0.503999H68.7358V16.008ZM82.2798 12.792C82.2798 13.8 82.5598 14.624 83.1198 15.264C83.6798 15.888 84.4078 16.2 85.3038 16.2C86.2798 16.184 87.0718 15.872 87.6798 15.264C88.2878 14.656 88.5838 13.856 88.5678 12.864V5.616H91.0638V18.168H88.5678V16.344C88.1998 16.936 87.6798 17.408 87.0078 17.76C86.3518 18.112 85.6718 18.288 84.9678 18.288C83.9758 18.288 83.0878 18.064 82.3038 17.616C81.5198 17.152 80.9038 16.512 80.4558 15.696C80.0078 14.88 79.7838 13.952 79.7838 12.912V5.616H82.2798V12.792ZM101.274 11.904L105.906 18.168H102.81L99.8099 13.92L96.8339 18.168H93.7379L98.2979 11.904L93.6419 5.616H96.7619L99.8099 9.984L102.834 5.616H105.954L101.274 11.904Z" fill="url(#paint0_linear_1350_775)"/>
<defs>
<linearGradient id="paint0_linear_1350_775" x1="53" y1="-6" x2="53" y2="24" gradientUnits="userSpaceOnUse">
<stop stop-color="#7C86DF"/>
<stop offset="1" stop-color="#4C5EFD"/>
</linearGradient>
</defs>
</svg>
